<?xml version="1.0" encoding="utf-8"?>
<!-- Generator: Adobe Illustrator 16.0.0, SVG Export Plug-In . SVG Version: 6.00 Build 0)  -->
<!DOCTYPE svg PUBLIC "-//W3C//DTD SVG 1.1//EN" "http://www.w3.org/Graphics/SVG/1.1/DTD/svg11.dtd">
<svg version="1.1" id="LOGO" xmlns="http://www.w3.org/2000/svg" xmlns:xlink="http://www.w3.org/1999/xlink" x="0px" y="0px"
	 width="195.369px" height="181.2px" viewBox="0 0 195.369 181.2" enable-background="new 0 0 195.369 181.2" xml:space="preserve">
<g id="Flag">
	<polygon fill="#AFA187" points="49.783,140.604 6.979,140.604 13.551,127.063 6.979,113.521 49.783,113.521 	"/>
	<polygon fill="#D1C0A1" points="49.528,146.38 24.527,131.237 49.528,127.063 	"/>
	<polygon fill="#AFA187" points="145.585,140.856 188.39,140.856 181.817,127.313 188.39,113.773 145.585,113.773 	"/>
	<polygon fill="#D1C0A1" points="145.585,146.301 170.586,131.202 145.585,126.983 	"/>
</g>
<g id="Brazao">
	<path fill="#DB960E" d="M160.996,43.386v-3.425l-10.157-17.967c0,0-8.771,15.999-24.923,15.999
		c-16.148,0-16.104-11.707-16.104-11.707H98.135H86.458c0,0,0.045,11.707-16.104,11.707S45.431,21.995,45.431,21.995L35.274,39.961
		v3.436c0,0,16.405,6.373,11.215,26.748c-3.855,15.128-13.151,27.966-13.151,45.304c0,46.597,29.689,46.358,47.155,46.358
		c15.841,0,17.257,13.129,17.257,15.488h0.76c0,0-0.375-15.25,17.266-15.25c17.466,0,47.155,0,47.155-46.597
		c0-17.338-9.295-30.176-13.15-45.304C144.59,49.77,160.996,43.386,160.996,43.386z"/>
	<g>
		<defs>
			<path id="SVGID_1_" d="M160.996,43.386v-3.425l-10.157-17.967c0,0-8.771,15.999-24.923,15.999
				c-16.148,0-16.104-11.707-16.104-11.707H98.135H86.458c0,0,0.045,11.707-16.104,11.707S45.431,21.995,45.431,21.995
				L35.274,39.961v3.436c0,0,16.405,6.373,11.215,26.748c-3.855,15.128-13.151,27.966-13.151,45.304
				c0,46.597,29.689,46.358,47.155,46.358c15.841,0,17.257,13.129,17.257,15.488h0.76c0,0-0.375-15.25,17.266-15.25
				c17.466,0,47.155,0,47.155-46.597c0-17.338-9.295-30.176-13.15-45.304C144.59,49.77,160.996,43.386,160.996,43.386z"/>
		</defs>
		<clipPath id="SVGID_2_">
			<use xlink:href="#SVGID_1_"  overflow="visible"/>
		</clipPath>
		<rect x="19.659" y="-3.421" opacity="0.2" clip-path="url(#SVGID_2_)" width="78.476" height="184.621"/>
	</g>
	<path fill="#FCB80D" d="M160.996,39.961l-10.157-18.909c0,0-8.771,15.998-24.923,15.998c-16.148,0-16.104-11.706-16.104-11.706
		H98.135H86.458c0,0,0.045,11.706-16.104,11.706S45.431,21.052,45.431,21.052L35.274,39.961c0,0,18.363,8.865,13.173,29.24
		c-3.854,15.128-13.173,27.966-13.173,45.305c0,45.896,27.753,45.296,45.219,45.296c17.642,0,17.642,11.984,17.642,11.984
		s0-11.984,17.642-11.984c17.466,0,45.218,0.6,45.218-45.296c0-17.339-9.316-30.177-13.171-45.305
		C142.632,48.827,160.996,39.961,160.996,39.961z"/>
	<g>
		<defs>
			<path id="SVGID_3_" d="M98.135,153.038c-3.923-2.402-9.609-4.417-17.642-4.417l-1.359,0.001c-6.847,0-16.231,0-22.494-4.091
				c-6.995-4.569-10.396-14.459-10.396-30.237c0-8.86,3.095-16.428,6.678-25.191c2.248-5.497,4.563-11.159,6.154-17.405
				c2.964-11.635,0.364-20.663-3.389-27.071c4.221,1.92,9.109,3.182,14.666,3.182c8.691,0,15.607-2.519,20.557-7.487
				c1.276-1.279,2.379-2.69,3.302-4.219h7.846c0.922,1.529,2.027,2.94,3.305,4.222c4.945,4.965,11.861,7.484,20.553,7.484
				c5.557,0,10.445-1.261,14.667-3.182c-3.753,6.408-6.353,15.437-3.389,27.071c1.59,6.246,3.905,11.908,6.144,17.384
				c3.593,8.783,6.688,16.35,6.688,25.212c0,15.777-3.401,25.669-10.397,30.24c-6.261,4.088-15.616,4.088-22.448,4.088l-1.4-0.001
				C107.745,148.621,102.059,150.635,98.135,153.038z"/>
		</defs>
		<clipPath id="SVGID_4_">
			<use xlink:href="#SVGID_3_"  overflow="visible"/>
		</clipPath>
		<g opacity="0.1" clip-path="url(#SVGID_4_)">
			<polygon points="97.284,92.789 326.183,86.353 326.183,97.58 			"/>
			<polygon points="326.183,73.393 97.284,92.789 326.183,60.342 			"/>
			<polygon points="326.183,112.399 97.284,92.789 326.183,124.808 			"/>
			<polygon points="326.183,143.178 97.284,92.789 326.183,161.391 			"/>
			<polygon points="326.183,42.75 97.318,92.789 326.183,25.437 			"/>
			<polygon points="326.183,178.835 97.306,92.789 326.183,205.503 			"/>
			<polygon points="326.183,6.448 97.284,92.789 326.183,-20.026 			"/>
			<polygon points="326.183,227.704 97.318,92.789 326.183,272.02 			"/>
			<polygon points="326.183,-47.041 97.318,92.789 326.183,-88.492 			"/>
			<polygon points="326.183,321.609 97.318,92.789 288.088,321.744 			"/>
			<polygon points="326.183,-136.818 97.318,92.755 287.503,-136.818 			"/>
			<polygon points="252.543,321.609 97.318,92.755 223.038,321.609 			"/>
			<polygon points="253.376,-136.818 97.318,92.755 223.375,-136.818 			"/>
			<polygon points="191.458,321.744 97.284,92.789 152.146,321.609 			"/>
			<polygon points="191.458,-136.684 97.284,92.789 150.57,-136.818 			"/>
			<polygon points="97.284,92.789 -131.92,86.353 -131.92,97.58 			"/>
			<polygon points="-132.088,73 97.284,92.789 -132.088,59.981 			"/>
			<polygon points="-132.088,112.016 97.284,92.789 -132.088,124.426 			"/>
			<polygon points="-132.088,142.794 97.284,92.789 -132.088,161.008 			"/>
			<polygon points="-132.088,42.355 97.284,92.789 -132.088,25.055 			"/>
			<polygon points="-132.088,178.454 97.284,92.789 -132.088,205.142 			"/>
			<polygon points="-132.088,6.076 97.284,92.789 -132.088,-20.41 			"/>
			<polygon points="-132.088,227.344 97.284,92.789 -132.088,271.658 			"/>
			<polygon points="-132.088,-47.401 97.284,92.789 -132.088,-88.886 			"/>
			<polygon points="-132.088,321.225 97.284,92.789 -93.939,321.338 			"/>
			<polygon points="-132.088,-137.226 97.284,92.789 -93.387,-137.226 			"/>
			<polygon points="-58.312,321.225 97.284,92.789 -28.83,321.225 			"/>
			<polygon points="-59.146,-137.226 97.284,92.789 -29.113,-137.226 			"/>
			<polygon points="-0.621,321.338 97.284,92.789 41.79,321.225 			"/>
			<polygon points="-0.621,-137.067 97.284,92.789 42.309,-137.226 			"/>
			<polygon points="124.581,-137.19 79.793,-136.818 97.284,92.789 			"/>
			<polygon points="121.942,321.744 84.696,321.789 97.306,92.654 			"/>
		</g>
	</g>
	<path fill="none" d="M98.135,160.575c-3.134-3.054-8.514-5.954-17.642-5.954l-1.354,0.001c-7.604,0-18.021,0-25.779-5.067
		c-8.824-5.764-13.114-17.298-13.114-35.261c0-10.04,3.461-18.503,7.125-27.463c2.164-5.293,4.402-10.765,5.893-16.614
		c3.197-12.549-1.296-21.422-5.627-26.656c-1.958-2.366-4.036-4.188-5.805-5.518l4.277-7.962c4.776,5.3,12.908,11.728,24.245,11.728
		c7.038,0,12.523-1.925,16.306-5.722c1.963-1.968,3.117-4.113,3.798-5.984h15.356c0.68,1.871,1.835,4.017,3.798,5.984
		c3.781,3.797,9.269,5.722,16.305,5.722c11.338,0,19.47-6.428,24.246-11.728l4.276,7.962c-1.769,1.329-3.846,3.151-5.804,5.518
		c-4.331,5.234-8.824,14.107-5.627,26.656c1.489,5.85,3.728,11.321,5.892,16.614c3.665,8.96,7.126,17.423,7.126,27.463
		c0,17.964-4.29,29.497-13.115,35.263c-7.74,5.055-18.127,5.065-25.729,5.065c-0.017,0-1.404-0.001-1.404-0.001
		C106.648,154.621,101.269,157.521,98.135,160.575z"/>
	<path fill="#FFFFFF" fill-opacity="0.2" d="M98.135,160.575c-3.134-3.054-8.514-5.954-17.642-5.954l-1.354,0.001
		c-7.604,0-18.021,0-25.779-5.067c-8.824-5.764-13.114-17.298-13.114-35.261c0-10.04,3.461-18.503,7.125-27.463
		c2.164-5.293,4.402-10.765,5.893-16.614c3.197-12.549-1.296-21.422-5.627-26.656c-1.958-2.366-4.036-4.188-5.805-5.518l4.277-7.962
		c4.776,5.3,12.908,11.728,24.245,11.728c7.038,0,12.523-1.925,16.306-5.722c1.963-1.968,3.117-4.113,3.798-5.984h15.356
		c0.68,1.871,1.835,4.017,3.798,5.984c3.781,3.797,9.269,5.722,16.305,5.722c11.338,0,19.47-6.428,24.246-11.728l4.276,7.962
		c-1.769,1.329-3.846,3.151-5.804,5.518c-4.331,5.234-8.824,14.107-5.627,26.656c1.489,5.85,3.728,11.321,5.892,16.614
		c3.665,8.96,7.126,17.423,7.126,27.463c0,17.964-4.29,29.497-13.115,35.263c-7.74,5.055-18.127,5.065-25.729,5.065
		c-0.017,0-1.404-0.001-1.404-0.001C106.648,154.621,101.269,157.521,98.135,160.575z"/>
	<g>
		<path opacity="0" fill="#FFFFFF" d="M98.135,160.575c-3.134-3.054-8.514-5.954-17.642-5.954l-1.354,0.001
			c-7.604,0-18.021,0-25.779-5.067c-8.824-5.764-13.114-17.298-13.114-35.261c0-10.04,3.461-18.503,7.125-27.463
			c2.164-5.293,4.402-10.765,5.893-16.614c3.197-12.549-1.296-21.422-5.627-26.656c-1.958-2.366-4.036-4.188-5.805-5.518
			l4.277-7.962c4.776,5.3,12.908,11.728,24.245,11.728c7.038,0,12.523-1.925,16.306-5.722c1.963-1.968,3.117-4.113,3.798-5.984
			h15.356c0.68,1.871,1.835,4.017,3.798,5.984c3.781,3.797,9.269,5.722,16.305,5.722c11.338,0,19.47-6.428,24.246-11.728
			l4.276,7.962c-1.769,1.329-3.846,3.151-5.804,5.518c-4.331,5.234-8.824,14.107-5.627,26.656c1.489,5.85,3.728,11.321,5.892,16.614
			c3.665,8.96,7.126,17.423,7.126,27.463c0,17.964-4.29,29.497-13.115,35.263c-7.74,5.055-18.127,5.065-25.729,5.065
			c-0.017,0-1.404-0.001-1.404-0.001C106.648,154.621,101.269,157.521,98.135,160.575z"/>
		<g opacity="0.2">
			<path fill="#FFFFFF" d="M102.058,36.102c0.922,1.528,2.026,2.938,3.302,4.218c4.948,4.969,11.864,7.488,20.556,7.488
				c5.557,0,10.445-1.261,14.667-3.182c-3.753,6.408-6.354,15.437-3.389,27.07c1.59,6.246,3.905,11.909,6.153,17.405
				c3.584,8.762,6.679,16.329,6.679,25.191c0,15.778-3.401,25.669-10.396,30.239c-6.262,4.089-15.617,4.089-22.447,4.089
				l-1.406-0.001c-8.033,0-13.718,2.015-17.642,4.417c-3.924-2.402-9.61-4.417-17.646-4.417l-1.35,0.001
				c-6.852,0-16.235,0-22.498-4.091c-6.995-4.569-10.396-14.459-10.396-30.237c0-8.86,3.095-16.428,6.687-25.212
				c2.239-5.476,4.554-11.138,6.145-17.383c2.964-11.634,0.364-20.663-3.389-27.071c4.221,1.92,9.109,3.182,14.666,3.182
				c8.691,0,15.607-2.519,20.554-7.484c1.278-1.281,2.382-2.692,3.305-4.222H102.058 M150.162,30.081
				c-4.776,5.3-12.908,11.728-24.246,11.728c-7.036,0-12.523-1.925-16.305-5.722c-1.963-1.968-3.118-4.113-3.798-5.984H90.457
				c-0.681,1.871-1.835,4.017-3.798,5.984c-3.782,3.797-9.268,5.722-16.306,5.722c-11.337,0-19.469-6.428-24.245-11.728
				l-4.277,7.962c1.769,1.329,3.847,3.151,5.805,5.518c4.331,5.234,8.824,14.107,5.627,26.656c-1.49,5.85-3.729,11.321-5.893,16.614
				c-3.664,8.96-7.125,17.423-7.125,27.463c0,17.963,4.29,29.497,13.114,35.261c7.758,5.067,18.175,5.067,25.779,5.067l1.354-0.001
				c9.128,0,14.508,2.9,17.642,5.954c3.134-3.054,8.514-5.954,17.642-5.954c0,0,1.388,0.001,1.404,0.001
				c7.603,0,17.989-0.011,25.729-5.065c8.825-5.766,13.115-17.299,13.115-35.263c0-10.04-3.461-18.503-7.126-27.463
				c-2.164-5.293-4.402-10.765-5.892-16.614c-3.197-12.549,1.296-21.422,5.627-26.656c1.958-2.366,4.035-4.188,5.804-5.518
				L150.162,30.081L150.162,30.081z"/>
		</g>
	</g>
	<path id="Birlho_Lado_Direito" fill="#FFFFFF" fill-opacity="0.2" d="M143.008,70.216c-3.197-12.549,1.296-21.422,5.627-26.656
		c1.958-2.366,4.035-4.188,5.804-5.518l-4.276-7.962c-4.776,5.3-12.908,11.728-24.246,11.728c-7.036,0-12.523-1.925-16.305-5.722
		c-1.963-1.968-3.118-4.113-3.798-5.984h-7.679v130.473l0,0c3.134-3.054,8.514-5.954,17.642-5.954c0,0,1.388,0.001,1.404,0.001
		c7.603,0,17.989-0.011,25.729-5.065c8.825-5.766,13.115-17.299,13.115-35.263c0-10.04-3.461-18.503-7.126-27.463
		C146.735,81.538,144.497,76.066,143.008,70.216z"/>
	<defs>
		<filter id="Adobe_OpacityMaskFilter" filterUnits="userSpaceOnUse" x="35.274" y="21.058" width="125.722" height="150.734">
			<feColorMatrix  type="matrix" values="1 0 0 0 0  0 1 0 0 0  0 0 1 0 0  0 0 0 1 0"/>
		</filter>
	</defs>
	<mask maskUnits="userSpaceOnUse" x="35.274" y="21.058" width="125.722" height="150.734" id="Birlho_1_">
		<g filter="url(#Adobe_OpacityMaskFilter)">
			<linearGradient id="SVGID_5_" gradientUnits="userSpaceOnUse" x1="98.1353" y1="-1.7754" x2="98.1353" y2="84.1938">
				<stop  offset="0" style="stop-color:#FFFFFF"/>
				<stop  offset="1" style="stop-color:#000000"/>
			</linearGradient>
			<path fill="url(#SVGID_5_)" d="M160.996,39.967l-10.157-18.909c0,0-8.771,15.999-24.923,15.999
				c-16.148,0-16.104-11.708-16.104-11.708H98.135H86.458c0,0,0.045,11.708-16.104,11.708S45.431,21.058,45.431,21.058
				L35.274,39.967c0,0,18.363,8.865,13.173,29.24c-3.854,15.128-13.173,27.966-13.173,45.305c0,45.896,27.753,45.296,45.219,45.296
				c17.642,0,17.642,11.984,17.642,11.984s0-11.984,17.642-11.984c17.466,0,45.218,0.6,45.218-45.296
				c0-17.339-9.316-30.177-13.171-45.305C142.632,48.833,160.996,39.967,160.996,39.967z"/>
		</g>
	</mask>
	<path id="Birlho" display="none" opacity="0.3" mask="url(#Birlho_1_)" fill="#FFFFFF" d="M160.996,39.967l-10.157-18.909
		c0,0-8.771,15.999-24.923,15.999c-16.148,0-16.104-11.708-16.104-11.708H98.135H86.458c0,0,0.045,11.708-16.104,11.708
		S45.431,21.058,45.431,21.058L35.274,39.967c0,0,18.363,8.865,13.173,29.24c-3.854,15.128-13.173,27.966-13.173,45.305
		c0,45.896,27.753,45.296,45.219,45.296c17.642,0,17.642,11.984,17.642,11.984s0-11.984,17.642-11.984
		c17.466,0,45.218,0.6,45.218-45.296c0-17.339-9.316-30.177-13.171-45.305C142.632,48.833,160.996,39.967,160.996,39.967z"/>
	<g>
		<path opacity="0" fill="#FFFFFF" d="M98.135,160.575c-3.134-3.054-8.514-5.954-17.642-5.954l-1.354,0.001
			c-7.604,0-18.021,0-25.779-5.067c-8.824-5.764-13.114-17.298-13.114-35.261c0-10.04,3.461-18.503,7.125-27.463
			c2.164-5.293,4.402-10.765,5.893-16.614c3.197-12.549-1.296-21.422-5.627-26.656c-1.958-2.366-4.036-4.188-5.805-5.518
			l4.277-7.962c4.776,5.3,12.908,11.728,24.245,11.728c7.038,0,12.523-1.925,16.306-5.722c1.963-1.968,3.117-4.113,3.798-5.984
			h15.356c0.68,1.871,1.835,4.017,3.798,5.984c3.781,3.797,9.269,5.722,16.305,5.722c11.338,0,19.47-6.428,24.246-11.728
			l4.276,7.962c-1.769,1.329-3.846,3.151-5.804,5.518c-4.331,5.234-8.824,14.107-5.627,26.656c1.489,5.85,3.728,11.321,5.892,16.614
			c3.665,8.96,7.126,17.423,7.126,27.463c0,17.964-4.29,29.497-13.115,35.263c-7.74,5.055-18.127,5.065-25.729,5.065
			c-0.017,0-1.404-0.001-1.404-0.001C106.648,154.621,101.269,157.521,98.135,160.575z"/>
	</g>
</g>
<g id="PINO_Esquerdo">
	<g>
		<path fill="#FFFFFF" d="M48.424,78.081c-5.61-4.384-7.609-5.513-8.63-18.307c-0.878-11.008-8.211-8.917-10.242-8.119
			c-2.032,0.793-8.834,4.24-2.004,12.915c7.939,10.083,7.239,12.271,6.099,19.299c-1.141,7.027-1.492,24.31,11.576,31.806
			c0,0,2.339,1.861,9.263,0.386l0.032,0.081c0.081-0.047,0.157-0.094,0.236-0.14c0.09-0.019,0.178-0.038,0.269-0.058l-0.031-0.081
			c6.085-3.62,6.537-6.573,6.537-6.573C66.029,94.911,54.035,82.465,48.424,78.081z"/>
	</g>
	<path fill="#DB960E" d="M40.912,67.988c-0.142-0.604-0.271-1.255-0.392-1.963c-1.668-0.164-3.397,0.049-5.065,0.702
		c-1.667,0.653-3.082,1.671-4.195,2.925c0.393,0.601,0.74,1.168,1.046,1.707c1.069-1.122,2.393-2.034,3.931-2.638
		C37.774,68.12,39.366,67.891,40.912,67.988z"/>
	<path fill="#DB960E" d="M42.397,72.099c-0.325-0.594-0.617-1.25-0.879-1.996c-1.476-0.061-2.986,0.173-4.449,0.746
		s-2.731,1.428-3.772,2.474c0.314,0.727,0.547,1.407,0.711,2.063c1.053-1.078,2.348-1.955,3.843-2.542
		C39.347,72.258,40.892,72.023,42.397,72.099z"/>
	<path opacity="0.3" fill="#FCB80D" d="M48.451,78.06c-5.611-4.385-7.61-5.513-8.631-18.307c-0.878-11.007-8.211-8.917-10.242-8.119
		c-0.72,0.282-2.039,0.899-3.139,1.961c0.093-0.039,0.181-0.075,0.261-0.105c2.03-0.799,9.363-2.888,10.241,8.119
		c1.02,12.793,3.02,13.923,8.63,18.306c5.61,4.385,17.605,16.831,13.104,31.208c0,0-0.326,2.127-4.138,4.981l0.007,0.017
		c0.081-0.047,0.157-0.093,0.236-0.14c0.09-0.02,0.178-0.037,0.269-0.058l-0.031-0.081c6.085-3.62,6.537-6.575,6.537-6.575
		C66.056,94.89,54.061,82.443,48.451,78.06z"/>
</g>
<g id="Bola_de_Boliche">
	<ellipse fill="#332F32" cx="97.135" cy="99.468" rx="42.76" ry="42.679"/>
	
		<ellipse transform="matrix(-0.9782 0.2078 -0.2078 -0.9782 182.4699 109.4793)" fill="#191719" cx="85.484" cy="64.324" rx="5.677" ry="2.179"/>
	
		<ellipse transform="matrix(-0.9495 0.3137 -0.3137 -0.9495 180.827 124.5667)" fill="#191719" cx="80.391" cy="76.833" rx="6.201" ry="3.462"/>
	
		<ellipse transform="matrix(-0.9495 0.3137 -0.3137 -0.9495 212.0684 108.3609)" fill="#191719" cx="97.317" cy="71.24" rx="6.201" ry="3.462"/>
	<path fill="#474647" d="M91.037,63.145c-0.25-1.177-2.938-1.604-6.006-0.952c-3.066,0.65-5.35,2.134-5.1,3.312
		c0.021,0.098,0.064,0.188,0.118,0.277c0.523-1.016,2.494-2.091,4.981-2.62c2.811-0.596,5.298-0.285,5.888,0.677
		C91.041,63.601,91.085,63.368,91.037,63.145z"/>
	<path fill="#474647" d="M86.278,74.888c-0.601-1.816-3.723-2.418-6.974-1.344c-3.154,1.042-5.264,3.276-4.842,5.066
		c0.347-1.563,2.239-3.235,4.842-4.096c3.251-1.074,6.373-0.474,6.974,1.343c0.018,0.055,0.025,0.11,0.038,0.168
		C86.403,75.634,86.397,75.25,86.278,74.888z"/>
	<path fill="#474647" d="M96.231,68.922c3.251-1.074,6.374-0.474,6.974,1.343c0.019,0.055,0.025,0.111,0.039,0.167
		c0.086-0.391,0.082-0.775-0.039-1.137c-0.6-1.816-3.723-2.417-6.974-1.343c-3.154,1.041-5.263,3.275-4.841,5.064
		C91.737,71.453,93.629,69.782,96.231,68.922z"/>
	<path fill="#3D3B3D" d="M135.632,99.468c0-21.221-55.719,24.841-76.993,0c0,21.223,17.235,38.425,38.497,38.425
		C118.396,137.893,135.632,120.69,135.632,99.468z"/>
</g>
<g id="PINO_Direito">
	<g>
		<path fill="#FFFFFF" d="M160.606,80.885c-1.33-6.748-2.077-8.835,5.261-18.825c6.312-8.596-0.364-11.702-2.353-12.401
			c-1.985-0.705-9.132-2.484-9.623,8.167c-0.57,12.382-2.464,13.537-7.737,17.95s-16.449,16.815-11.639,30.546
			c0,0,0.533,2.838,6.522,6.134c0,0,0.146,0.112,0.234,0.127c0.078,0.042,0.26,0.048,0.26,0.048
			c6.731,1.198,8.929-0.674,8.929-0.674C162.833,104.3,161.934,87.63,160.606,80.885z"/>
	</g>
	<path fill="#DB960E" d="M161.495,68.766c0.277-0.531,0.595-1.088,0.954-1.682c-1.114-1.172-2.513-2.109-4.144-2.687
		c-1.63-0.576-3.308-0.726-4.911-0.513c-0.095,0.687-0.198,1.321-0.316,1.906c1.489-0.144,3.034,0.027,4.538,0.559
		C159.12,66.88,160.427,67.718,161.495,68.766z"/>
	<path fill="#DB960E" d="M159.984,72.707c0.135-0.639,0.338-1.302,0.619-2.013c-1.039-0.977-2.292-1.76-3.723-2.266
		c-1.429-0.507-2.896-0.684-4.316-0.576c-0.23,0.728-0.489,1.372-0.786,1.956c1.451-0.122,2.951,0.054,4.414,0.571
		S158.931,71.7,159.984,72.707z"/>
	<path opacity="0.3" fill="#FCB80D" d="M141.533,112.632c-4.811-13.732-1.89-27.333,6.157-35.635
		c4.787-4.938,8.762-3.66,9.333-16.042c0.492-10.65,7.637-8.873,9.623-8.168c0.355,0.126,0.862,0.33,1.418,0.628
		c-1.016-2.287-3.47-3.378-4.549-3.757c-1.985-0.705-9.132-2.484-9.623,8.167c-0.57,12.382-2.464,13.537-7.737,17.95
		s-16.449,16.815-11.639,30.546c0,0,0.353,1.877,3.711,4.354C137.733,109.913,141.533,112.632,141.533,112.632z"/>
</g>
<g id="PINO_Baixo">
	<path fill="#FFFFFF" d="M133.117,149.74c5.448,0.416,7.206,0.288,13.296,8.028c5.24,6.661,9.038,2.21,9.995,0.836
		c0.963-1.371,3.845-6.464-4.208-9.104c-9.36-3.069-9.842-4.764-12.1-9.741c-2.259-4.976-9.38-16.168-20.917-15.403
		c0,0-2.286-0.196-6.085,3.69c0,0-0.113,0.089-0.145,0.151c-0.049,0.051-0.093,0.189-0.093,0.189c-2.35,4.899-1.382,6.98-1.382,6.98
		C114.714,146.467,127.669,149.323,133.117,149.74z"/>
	<path fill="#DB960E" d="M142.208,152.996c0.346,0.325,0.706,0.687,1.084,1.088c1.136-0.604,2.15-1.477,2.938-2.602
		c0.788-1.126,1.259-2.379,1.438-3.651c-0.507-0.218-0.969-0.434-1.395-0.647c-0.206,1.172-0.663,2.317-1.391,3.356
		C144.157,151.577,143.237,152.4,142.208,152.996z"/>
	<path fill="#DB960E" d="M139.511,151c0.461,0.24,0.926,0.536,1.41,0.902c0.968-0.587,1.835-1.381,2.526-2.367
		c0.692-0.987,1.139-2.074,1.359-3.185c-0.51-0.331-0.946-0.666-1.331-1.017c-0.215,1.137-0.668,2.249-1.375,3.259
		S140.506,150.408,139.511,151z"/>
	<path opacity="0.3" fill="#FCB80D" d="M120.762,142.287c0,0-0.967-2.081,1.383-6.98c0,0,0.044-0.139,0.092-0.189
		c0.031-0.063,0.146-0.151,0.146-0.151c3.797-3.887,6.085-3.69,6.085-3.69c2.503-0.166,4.798,0.232,6.883,1.007
		c-3.652-4.347-9.073-8.397-16.167-7.927c0,0-2.286-0.196-6.085,3.69c0,0-0.113,0.089-0.145,0.151
		c-0.049,0.051-0.093,0.189-0.093,0.189c-2.35,4.899-1.382,6.98-1.382,6.98c1.838,6.31,6.819,9.953,11.776,12.002
		C122.19,145.902,121.326,144.223,120.762,142.287z"/>
</g>
<polygon id="estrela_direita" fill="#FCB80D" points="69.129,7.994 70.909,11.602 74.893,12.181 72.011,14.99 72.691,18.957 
	69.129,17.084 65.566,18.957 66.247,14.99 63.365,12.181 67.348,11.602 "/>
<polygon id="estrela_esquerda" fill="#FCB80D" points="126.502,7.994 128.283,11.602 132.265,12.181 129.384,14.99 130.064,18.957 
	126.502,17.084 122.94,18.957 123.619,14.99 120.738,12.181 124.722,11.602 "/>
<rect id="name_holder" x="24.527" y="98.725" fill="#EFE0C2" width="146.059" height="32.513"/>
<polygon id="name_estrela_direita" fill="#72500D" points="36.971,111.852 38.158,114.258 40.814,114.645 38.893,116.516 
	39.347,119.161 36.971,117.912 34.596,119.161 35.05,116.516 33.128,114.645 35.784,114.258 "/>
<polygon id="name_estrela_esquerda" fill="#72500D" points="158.144,111.852 159.331,114.258 161.986,114.645 160.064,116.516 
	160.518,119.161 158.144,117.912 155.769,119.161 156.222,116.516 154.301,114.645 156.955,114.258 "/>
<g>
	<g>
		<path fill="#FCB80D" d="M47.159,120.685h1.306v-9.91h-1.306v-2.905h8.401c3.738,0,5.518,1.396,5.518,3.851
			c0,1.892-0.518,2.815-2.207,3.491c1.622,0.451,2.973,1.644,2.973,3.829c0,3.175-1.779,4.572-6.126,4.572h-8.559V120.685z
			 M53.127,114.221h1.374c1.193,0,1.531-0.653,1.531-1.734c0-1.036-0.63-1.644-1.486-1.644h-1.419V114.221z M54.929,120.685
			c0.946,0,1.824-0.721,1.824-1.937c0-1.148-0.653-1.982-1.892-1.982h-1.734v3.919H54.929z"/>
		<path fill="#FCB80D" d="M62.405,115.663c0-4.865,3.243-8.221,7.905-8.221c5.518,0,8.085,3.311,8.085,8.378
			c0,5.09-2.838,8.198-7.928,8.198C65.761,124.018,62.405,121.293,62.405,115.663z M72.765,115.82c0-2.725-0.743-4.91-2.477-4.91
			c-1.374-0.023-2.32,1.959-2.32,4.752c0,2.95,1.059,4.82,2.5,4.82C71.887,120.482,72.765,118.613,72.765,115.82z"/>
		<path fill="#FCB80D" d="M86.413,107.87v2.973h-1.194v9.774h2.905v-2.86h3.784v5.855H79.296v-2.996h1.239v-9.774h-1.239v-2.973
			H86.413z"/>
		<path fill="#FCB80D" d="M100.511,107.87v2.973h-1.396v9.774h1.396v2.996h-7.478v-2.996h1.419v-9.774h-1.419v-2.973H100.511z"/>
		<path fill="#FCB80D" d="M116.186,120.797c-1.532,1.689-3.874,3.176-6.824,3.176c-4.774,0-7.95-3.063-7.95-8.085
			c0-5.18,3.896-8.288,6.847-8.288c2.252,0,3.266,1.261,3.468,1.532l0.518-1.261h3.536v6.396h-4.032
			c-0.067-1.464-0.788-2.838-2.387-2.838c-1.622,0-2.68,2.005-2.68,4.459c0,2.23,1.149,4.234,3.288,4.234
			c1.892,0,3.378-1.982,3.581-2.208L116.186,120.797z"/>
		<path fill="#FCB80D" d="M124.383,107.87v2.973h-1.396v3.401h4.279v-3.401h-1.329v-2.973h7.32v2.973h-1.306v9.797h1.306v2.973
			h-7.32v-2.973h1.329v-3.401h-4.279v3.401h1.396v2.973h-7.297v-2.973h1.239v-9.797h-1.239v-2.973H124.383z"/>
		<path fill="#FCB80D" d="M147.962,107.87v4.977h-3.896v-2.004h-3.604v3.108h4.279v2.996h-4.279v3.671h3.604v-2.094h3.896v5.09
			h-13.581v-2.996h1.419v-9.774h-1.419v-2.973H147.962z"/>
	</g>
	<g>
		<path fill="#72500D" d="M47.159,120.685h1.306v-9.91h-1.306v-2.905h8.401c3.738,0,5.518,1.396,5.518,3.851
			c0,1.892-0.518,2.815-2.207,3.491c1.622,0.451,2.973,1.644,2.973,3.829c0,3.175-1.779,4.572-6.126,4.572h-8.559V120.685z
			 M53.127,114.221h1.374c1.193,0,1.531-0.653,1.531-1.734c0-1.036-0.63-1.644-1.486-1.644h-1.419V114.221z M54.929,120.685
			c0.946,0,1.824-0.721,1.824-1.937c0-1.148-0.653-1.982-1.892-1.982h-1.734v3.919H54.929z"/>
		<path fill="#72500D" d="M62.405,115.663c0-4.865,3.243-8.221,7.905-8.221c5.518,0,8.085,3.311,8.085,8.378
			c0,5.09-2.838,8.198-7.928,8.198C65.761,124.018,62.405,121.293,62.405,115.663z M72.765,115.82c0-2.725-0.743-4.91-2.477-4.91
			c-1.374-0.023-2.32,1.959-2.32,4.752c0,2.95,1.059,4.82,2.5,4.82C71.887,120.482,72.765,118.613,72.765,115.82z"/>
		<path fill="#72500D" d="M86.413,107.87v2.973h-1.194v9.774h2.905v-2.86h3.784v5.855H79.296v-2.996h1.239v-9.774h-1.239v-2.973
			H86.413z"/>
		<path fill="#72500D" d="M100.511,107.87v2.973h-1.396v9.774h1.396v2.996h-7.478v-2.996h1.419v-9.774h-1.419v-2.973H100.511z"/>
		<path fill="#72500D" d="M116.186,120.797c-1.532,1.689-3.874,3.176-6.824,3.176c-4.774,0-7.95-3.063-7.95-8.085
			c0-5.18,3.896-8.288,6.847-8.288c2.252,0,3.266,1.261,3.468,1.532l0.518-1.261h3.536v6.396h-4.032
			c-0.067-1.464-0.788-2.838-2.387-2.838c-1.622,0-2.68,2.005-2.68,4.459c0,2.23,1.149,4.234,3.288,4.234
			c1.892,0,3.378-1.982,3.581-2.208L116.186,120.797z"/>
		<path fill="#72500D" d="M124.383,107.87v2.973h-1.396v3.401h4.279v-3.401h-1.329v-2.973h7.32v2.973h-1.306v9.797h1.306v2.973
			h-7.32v-2.973h1.329v-3.401h-4.279v3.401h1.396v2.973h-7.297v-2.973h1.239v-9.797h-1.239v-2.973H124.383z"/>
		<path fill="#72500D" d="M147.962,107.87v4.977h-3.896v-2.004h-3.604v3.108h4.279v2.996h-4.279v3.671h3.604v-2.094h3.896v5.09
			h-13.581v-2.996h1.419v-9.774h-1.419v-2.973H147.962z"/>
	</g>
</g>
<g>
</g>
<g>
</g>
<g>
</g>
<g>
</g>
<g>
</g>
<g>
</g>
</svg>
